<?xml version="1.0" encoding="utf-8"?>
<!-- Generator: Adobe Illustrator 27.0.1, SVG Export Plug-In . SVG Version: 6.00 Build 0)  -->
<svg version="1.1" id="Warstwa_1" xmlns="http://www.w3.org/2000/svg" xmlns:xlink="http://www.w3.org/1999/xlink" x="0px" y="0px"
	 viewBox="0 0 50 50" style="enable-background:new 0 0 50 50;" xml:space="preserve">
<style type="text/css">
	.st0{fill:#F1DD01;}
</style>
<g>
	<path class="st0" d="M23.3,19.2C23.3,19.2,23.4,19.2,23.3,19.2c0.1,0,0.2,0.1,0.2,0.1c0.5,0,0.5,0.4,0.5,0.8c0,4.5,0,9,0,13.5
		c0,5.3,0,10.5,0,15.8c0,0.3-0.1,0.6-0.4,0.5c-0.7-0.2-1.4-0.2-2.1-0.4c-2.3-0.5-4.5-0.8-6.8-1.1c-1.9-0.2-3.8-0.4-5.7-0.6
		c-2.9-0.4-5.7-1.2-8.3-2.7c-0.2-0.1-0.3-0.3-0.5-0.4c0-0.2-0.1-0.3-0.1-0.5c0-5,0-10-0.1-15c0-4.7,0-9.4-0.1-14.1
		c0-0.2-0.1-0.5,0.4-0.3c1.5,0.7,3.1,1.2,4.8,1.6c1.9,0.5,3.9,0.8,5.9,1c1,0.1,2,0.2,3,0.3c0.9,0.1,1.9,0.3,2.8,0.3c0,0,0,0,0,0
		c0,0.1,0.1,0.1,0.2,0.1c1.4,0.2,2.8,0.5,4.3,0.7C22,19,22.6,19.3,23.3,19.2z M14.3,31.1c0.3-0.4,0.5-0.7,0.8-1
		c1-1.4,1.7-2.9,1.6-4.7c0-1.6-1.3-3.5-2.8-4.1c-0.7-0.3-1-0.1-1.1,0.7c0,0.6-0.1,1.3-0.1,1.9c-0.1,1.2-0.5,2.2-1.6,2.9
		c-1,0.6-1.8,1.4-2.6,2.2c-0.7,0.8-1.5,1.6-2.3,2.4c-0.1,0.2-0.3,0.2-0.5,0.2c-1,0-2-0.1-3-0.1c-0.8,0-0.7-0.2-1,0.7
		c-0.8,2.3-0.8,4.7-0.2,7.1c0.1,0.4,0.3,0.6,0.7,0.6c0.8-0.1,1.5,0,2.3,0c0.6,0,1.1,0.1,1.3,0.7c0.1,0.3,0.4,0.6,0.6,0.8
		c1.3,1.4,2.6,2.7,4.7,2.7c0.3,0,0.6,0,0.9,0c0.3,0,0.6,0,0.9,0.2c0.8,0.4,1.7,0.5,2.6,0.4c0.7-0.1,1.4-0.7,1.5-1.4
		c0-0.2,0.1-0.3,0.3-0.4c1-0.3,1.6-0.9,1.7-2c0-0.2,0.1-0.3,0.3-0.4c0.8-0.4,1.2-1.3,1-2.2c0-0.2,0-0.3,0.2-0.5
		c0.9-0.9,1-2.1,0.1-3.1c-0.4-0.5-0.9-0.9-1.5-1.3C17.7,32.4,16.1,31.6,14.3,31.1z"/>
	<path class="st0" d="M32,3.1c1.5,1.9,2.4,4.1,2.6,6.5c0.2,2.1,0.1,4.1-0.5,6.1c-0.1,0.2-0.1,0.3-0.3,0.3c-2.8,0.4-5.6,0.9-8.4,1.5
		c-0.5,0.1-1-0.2-1.5-0.3c-2.5-0.5-5.1-1-7.6-1.3c-0.2,0-0.4-0.1-0.4-0.4c-0.4-4.1,0.4-7.9,2.7-11.3c0.8-1.2,1.8-2.2,3-3
		C21.7,1.2,21.8,1.1,22,1c2.3-1.3,4.7-1.3,7.1-0.2c1.1,0.5,1.9,1.2,2.7,2.1c0,0,0,0,0,0C31.8,2.9,31.9,3,32,3.1z M21.8,13.2
		c0.3,0.7,0.7,1.4,1.2,1.9c1.4,1.5,4.1,1.2,5.2-0.6C25.9,15,23.6,15,21.8,13.2z M28.3,10.7c0,0.1,0.1,0.4,0.1,0.6
		c0.1,0.4,0.3,0.7,0.7,0.8c0.4,0.1,0.7-0.2,1-0.5c0.5-0.7,0.6-1.6,0.3-2.4c-0.3-0.7-1-0.8-1.5-0.2C28.4,9.4,28.3,10,28.3,10.7z
		 M22.4,9c0-0.3,0-0.6-0.1-0.9c-0.3-0.8-1.1-0.9-1.6-0.2c-0.6,0.7-0.7,1.6-0.3,2.5c0.3,0.7,0.9,0.8,1.4,0.2
		C22.3,10.1,22.4,9.6,22.4,9z"/>
	<path class="st0" d="M50,14.7c0,0.7,0,1.4,0,2c0,3.4,0,6.8,0,10.2c0,5.7,0,11.3,0,17c0,0.7-0.2,1-0.8,1.4c-2.4,1.3-4.9,2.1-7.6,2.5
		c-2.8,0.4-5.7,0.6-8.5,1c-2.2,0.4-4.5,0.7-6.7,1.2c-0.1,0-0.2,0-0.3,0c0-0.2,0-0.3,0-0.5c0-9.8,0-19.7,0-29.5
		c0-0.4,0.1-0.6,0.5-0.6c3-0.6,6-1.1,9-1.5c2.1-0.3,4.3-0.4,6.4-0.8c2.1-0.4,4.2-0.9,6.2-1.7C48.8,15.2,49.4,14.9,50,14.7z
		 M45.6,23.9c-3.2,1.3-6.5,1.9-9.9,2.2c-2.2,0.2-4.4,0.7-6.6,1.3c-0.3,0.1-0.4,0.2-0.3,0.4c0,0.6,0,1.3,0,1.9c0.1,0,0.2,0,0.2,0
		c3.4-1,7-1.6,10.5-2c1.9-0.2,3.8-0.7,5.6-1.4c0.2-0.1,0.4-0.1,0.4-0.4C45.6,25.3,45.6,24.6,45.6,23.9z M45.6,40.8
		c-1.1,0.4-2.3,0.8-3.5,1.1c-2.4,0.7-4.9,0.8-7.4,1.2c-1.9,0.3-3.7,0.7-5.6,1.1c-0.1,0-0.3,0-0.3,0.3c0,0.7,0,1.4,0,2.1
		c1.1-0.3,2-0.5,3-0.8c2.6-0.7,5.3-0.9,8-1.3c1.9-0.3,3.7-0.7,5.4-1.4c0.2-0.1,0.4-0.1,0.4-0.3C45.6,42.2,45.6,41.5,45.6,40.8z
		 M28.8,34c0.2-0.1,0.4-0.1,0.5-0.1c2.7-0.7,5.5-1.4,8.3-1.6c2.6-0.3,5.1-0.8,7.5-1.6c0.3-0.1,0.4-0.2,0.4-0.5c0-0.5,0-1.1,0-1.6
		c0-0.4-0.1-0.4-0.4-0.3c-2.6,1-5.2,1.6-7.9,1.9c-2.7,0.3-5.5,0.8-8.1,1.4c-0.3,0.1-0.4,0.2-0.4,0.5C28.9,32.7,28.8,33.3,28.8,34z
		 M28.9,41.3C28.9,41.3,28.9,41.3,28.9,41.3c0,0.2,0,0.5,0,0.7c0,0.4,0.1,0.4,0.4,0.3c2.7-0.8,5.4-1.4,8.1-1.6
		c2.6-0.3,5.1-0.7,7.5-1.6c0.5-0.2,0.8-0.4,0.7-0.9c0-0.4,0-0.8,0-1.2c0-0.5,0-0.5-0.5-0.3c-3,1.2-6.2,1.7-9.3,2.1
		c-0.7,0.1-1.4,0.2-2.1,0.3c-1.4,0.2-2.7,0.5-4,0.8c-0.9,0.2-0.9,0.2-0.9,1.2C28.9,41.1,28.9,41.2,28.9,41.3z M45.6,19.6
		c-0.1,0-0.2,0.1-0.2,0.1c-2.7,1-5.4,1.7-8.2,2c-2.7,0.2-5.3,0.8-7.9,1.4c-0.3,0.1-0.4,0.2-0.4,0.5c0,0.6,0,1.1,0,1.7
		c0,0.2,0.1,0.3,0.3,0.2c3.3-1,6.7-1.5,10.1-1.9c2-0.2,4-0.7,5.9-1.4c0.3-0.1,0.4-0.2,0.4-0.6C45.6,21,45.6,20.3,45.6,19.6z"/>
	<path class="st0" d="M10.8,43.2C10,43.3,9.4,43,8.9,42.6c-1.2-0.8-2.1-1.9-2.8-3.2c-0.2-0.2-0.3-0.3-0.6-0.3c-1,0-1.9,0-2.9,0
		c-0.2,0-0.3-0.1-0.4-0.3c-0.4-2-0.4-4,0.2-6c0.1-0.3,0.2-0.4,0.6-0.4c1,0.1,2,0.1,3.1,0.1c0.3,0,0.4-0.1,0.6-0.2
		c1-1.1,2.1-2.2,3.2-3.3c0.7-0.7,1.4-1.2,2.2-1.7c0.6-0.4,1.1-1,1.3-1.7c0.2-0.9,0.4-1.7,0.4-2.6c0,0,0-0.1,0-0.1
		c0.1-0.7,0.1-0.7,0.7-0.2c1.3,1,1.9,2.4,1.5,4c-0.4,1.6-1.2,3-2.3,4.2c-0.1,0.2-0.3,0.3-0.2,0.6c0.1,0.3,0.3,0.4,0.6,0.5
		c2.2,0.5,4.2,1.6,5.9,3.1c0.5,0.4,0.9,1,0.6,1.7c-0.3,0.7-0.9,1.1-1.6,1.2c-0.5,0.1-0.9,0-1.4-0.1c-1.3-0.5-2.7-0.9-3.9-1.6
		c-0.3-0.1-0.6-0.2-0.6-0.6c0-0.5,0.3-0.8,0.7-1c0.4-0.2,0.9-0.2,1.4-0.1c0.8,0.2,1.5,0.6,2.2,1c0.4,0.3,0.5-0.1,0.6-0.3
		c0.3-0.3,0-0.3-0.2-0.4c-0.8-0.5-1.6-0.9-2.6-1.2c-1.6-0.4-2.7,0.4-3,2c0,0.2-0.1,0.2-0.3,0.3c-0.7,0.4-1.2,1-1.2,1.9
		c0,0.2-0.1,0.3-0.2,0.4c-0.5,0.6-0.8,1.2-0.5,2c0.1,0.1,0,0.2-0.1,0.2C9,41.6,9.5,42.4,10.4,43C10.5,43,10.6,43.1,10.8,43.2z"/>
	<path class="st0" d="M19.7,38.6c-0.2,1-0.6,1.4-1.6,1.6c-1.1,0.2-2.1,0-3.1-0.4c-1-0.4-2-0.8-2.9-1.3c-0.3-0.2-0.7-0.3-0.6-0.8
		c0.1-0.4,0.7-0.9,1-1c0.1,0,0.2,0.1,0.2,0.1c1.6,0.9,3.2,1.5,5,2C18.3,38.9,19,38.7,19.7,38.6z"/>
	<path class="st0" d="M18.3,41c-0.3,1-0.7,1.2-1.8,1.3c-0.4,0-0.9,0-1.3-0.1c-1.4-0.5-2.8-1.1-4.1-1.9c-0.3-0.2-0.5-0.5-0.4-0.9
		c0.2-0.6,0.3-0.6,0.9-0.3c1.6,0.9,3.2,1.6,5,2C17.1,41.1,17.7,41,18.3,41z"/>
	<path class="st0" d="M14.9,44.1c-0.4-0.1-0.8-0.2-1.2-0.4c-1.1-0.4-2.1-1-3.1-1.6c-0.3-0.2-0.4-0.4-0.2-0.7
		c0.2-0.3,0.3-0.4,0.7-0.2c1.3,0.8,2.7,1.4,4.2,1.8c0.3,0.1,0.5,0.1,0.8,0.1c0.2,0,0.3,0.1,0.1,0.3C15.9,43.9,15.4,44,14.9,44.1z"/>
</g>
</svg>
