<?xml version="1.0" encoding="utf-8"?>
<!-- Generator: Adobe Illustrator 25.2.1, SVG Export Plug-In . SVG Version: 6.00 Build 0)  -->
<svg version="1.1" id="Warstwa_1" xmlns="http://www.w3.org/2000/svg" xmlns:xlink="http://www.w3.org/1999/xlink" x="0px" y="0px"
	 viewBox="0 0 195 45" style="enable-background:new 0 0 195 45;" xml:space="preserve">
<style type="text/css">
	.st0{fill:#231F20;}
	.st1{fill-rule:evenodd;clip-rule:evenodd;fill:#231F20;}
	.st2{fill:#ED1C24;stroke:#ED1C24;stroke-width:0.3319;stroke-miterlimit:10;}
</style>
<g>
	<path class="st0" d="M21.3,30.4l2.3,6.3c0.5,1.4,1,2,2.5,2.8L31.3,27h-3.5c0.7,0.4,0.9,0.7,0.9,1.2c0,0.4,0,0.4-0.4,1.3L25.9,36
		l-2.8-7.7c-0.2-0.7-0.3-0.7-0.3-0.9v-0.1l0.1-0.2h-3.4c0.5,0.4,0.7,0.7,0.7,1c0,0.4-0.1,0.9-0.4,1.5L17.3,36l-2.9-7.7
		c-0.3-0.7-0.4-1.2-0.4-1.7c-0.5,0.4-0.7,0.4-1.6,0.4h-1.5c0.8,0.7,0.9,0.8,1.5,2.5l2.8,7.2c0.5,1.5,0.9,1.9,2.7,2.8L21.3,30.4z"/>
	<path class="st0" d="M41.7,30.4l2.3,6.3c0.4,1.4,0.9,2,2.5,2.8L51.7,27h-3.5c0.7,0.4,0.9,0.7,0.9,1.2c0,0.4,0,0.4-0.4,1.3L46.2,36
		l-2.8-7.7c-0.2-0.7-0.3-0.7-0.3-0.9v-0.1l0.1-0.2h-3.4c0.5,0.4,0.7,0.7,0.7,1c0,0.4-0.1,0.9-0.4,1.5L37.7,36l-2.9-7.7
		c-0.3-0.7-0.4-1.2-0.4-1.7c-0.5,0.4-0.7,0.4-1.6,0.4h-1.5c0.7,0.7,0.9,0.8,1.5,2.5l2.8,7.2c0.5,1.5,0.9,1.9,2.7,2.8L41.7,30.4z"/>
	<path class="st0" d="M62.1,30.4l2.3,6.3c0.4,1.4,0.9,2,2.5,2.8L72,27h-3.5c0.7,0.4,0.9,0.7,0.9,1.2c0,0.4-0.1,0.4-0.4,1.3L66.6,36
		l-2.8-7.7c-0.2-0.7-0.3-0.7-0.3-0.9v-0.1l0.1-0.2h-3.4c0.6,0.4,0.7,0.7,0.7,1c0,0.4-0.1,0.9-0.4,1.5L58.1,36l-2.9-7.7
		c-0.3-0.7-0.4-1.2-0.4-1.7C54.2,26.9,54,27,53.1,27h-1.5c0.7,0.7,0.9,0.8,1.5,2.5l2.8,7.2c0.5,1.5,0.9,1.9,2.7,2.8L62.1,30.4z"/>
	<path class="st0" d="M75.2,35.9c-0.9,0-1.6,0.7-1.6,1.6c0,0.9,0.7,1.6,1.6,1.6c0.9,0,1.6-0.7,1.6-1.6
		C76.8,36.6,76.1,35.9,75.2,35.9z"/>
	<path class="st1" d="M85.6,33.7c-1.6-0.1-2.9-1.5-2.9-3.1c0-1.5,1.1-2.5,2.7-2.5c0.1,0,0.2,0,0.3,0c1.6,0.1,2.9,1.4,2.9,3.1
		c0,1.5-1.1,2.6-2.6,2.6C85.8,33.7,85.8,33.7,85.6,33.7z M85.6,44.8c0.1,0,0.1,0,0.1,0c2.3,0,4.4-0.6,5.7-1.7
		c0.9-0.7,1.3-1.6,1.3-2.8c0-0.7-0.2-1.4-0.6-1.9c-0.5-0.7-1.5-1.3-2.4-1.5c-1.1-0.3-2.1-0.4-4.3-0.4l0,0c-0.7,0-1.1-0.1-1.1-0.4
		c0-0.4,0.3-0.5,1.1-0.7l0,0c1.2-0.1,1.8-0.3,2.6-0.6c1.9-0.7,2.9-2,2.9-3.6c0-1.3-0.6-2.3-1.9-3.2c1.5,0.3,2.3,0.4,2.8,0.4
		c0.4,0,0.7-0.1,0.7-0.4l0.8-1.5l0,0c-1.2,0.1-2.4,0.2-3.1,0.2c-0.4,0-1.9-0.1-2.5-0.1c-1.1-0.1-1.9-0.1-2.2-0.1l0,0l0,0
		c-3.1,0-5.3,1.9-5.3,4.4c0,1.2,0.5,2.3,1.4,3.1c0.5,0.5,0.9,0.7,1.9,0.9c-1.7,0.7-2,0.9-2,1.4c0,0.4,0.2,0.9,0.4,1.2
		c0.3,0.4,0.8,0.7,1.4,0.7c0.1,0,0.4,0,0.6-0.1l1.2-0.1c0.1,0,0.3,0,0.4,0l0,0c3.2,0.1,4.8,0.9,4.8,2.5c0,1.7-1.9,2.8-4.7,2.8
		c-0.1,0,0.1,0,0,0l0,0c-2.6-0.1-4.2-1.1-4.2-2.8c0-0.7,0.4-1,1.2-1.2c-0.6-0.3-0.9-0.3-1.4-0.3c-1.5,0-2.3,0.7-2.3,2
		C78.9,43.2,81.8,44.8,85.6,44.8z"/>
	<path class="st0" d="M104.5,28.1c-1.3-1.1-2.4-1.5-4-1.5c-3.4,0-6,2.8-6,6.3c0,3.8,2.7,6.3,6.5,6.3c0.5,0,0.8-0.1,1.3-0.2l1.5-2.3
		c-0.9,0.5-1.4,0.7-2.3,0.7c-2.5,0-4.4-2.1-4.4-4.9c0-2.5,1.5-4.2,3.8-4.2c1.2,0,2.3,0.5,2.9,1.4c0.6,0.8,0.7,1.3,0.7,3.3v5.9h3.3
		c-0.9-0.7-0.9-0.9-0.9-2.5V21.4c-0.4,0.4-0.7,0.5-1.5,0.5h-1.8c0.9,0.7,0.9,0.9,0.9,2.5L104.5,28.1L104.5,28.1z"/>
	<path class="st0" d="M121.8,37.3c-0.7-0.1-1.2-0.1-1.5-0.4c-0.6-0.4-0.7-0.7-0.7-2.2v-3.3c0-2-0.1-2.3-0.5-3.1
		c-0.7-1.2-2.2-1.7-4.4-1.7c-0.7,0-1.1,0-1.8,0.1l-1.7,2.6c1.6-0.8,2.4-1,3.5-1c1.5,0,2.5,0.7,2.5,1.7c0,0.9-0.7,1.3-2.9,1.7
		c-1.9,0.4-2.7,0.6-3.3,1c-0.9,0.5-1.5,1.5-1.5,2.6c0,1.1,0.5,2.1,1.3,2.8c0.8,0.7,1.7,1,3.1,1c0.5,0,0.8-0.1,1.4-0.1l1.5-2
		c-0.9,0.3-1.3,0.4-2,0.4c-1.7,0-2.8-0.8-2.8-2.1c0-1,0.7-1.7,1.9-2c2.3-0.5,2.4-0.6,3.3-1v3.3c0,1.7,0.2,2.3,0.9,2.8
		c0.6,0.4,1.2,0.5,2.4,0.6L121.8,37.3z"/>
	<path class="st1" d="M126.1,26.5c-0.4,0.4-0.7,0.5-1.5,0.5H123c0.9,0.7,1,0.9,1,2.5v6.8c0,1.6-0.1,1.8-1,2.5h4.3
		c-0.9-0.7-1-0.9-1-2.5v-5.2c0-0.7,0.1-1.1,0.4-1.5c0.5-0.7,1.4-1.1,2.4-1.1c1.1,0,2.1,0.4,2.6,1.1c0.4,0.5,0.6,1.2,0.6,2.6v4.1
		c0,1.6-0.1,1.8-1,2.5h4.3c-0.9-0.7-1-0.9-1-2.5V32c0-2-0.1-2.8-0.6-3.5c-0.7-1.1-2.3-1.8-3.9-1.8c-1.5,0-2.5,0.5-3.8,2L126.1,26.5
		L126.1,26.5z"/>
	<path class="st0" d="M145.8,27c-0.7-0.2-1.7-0.4-2.8-0.4c-3.1,0-5.1,1.3-5.1,3.5c0,1.6,0.9,2.4,3.9,3.5c1.7,0.6,2,0.7,2.5,1
		c0.4,0.3,0.6,0.7,0.6,1.2c0,1-1.2,1.8-2.8,1.8c-1.6,0-2.9-0.4-4.8-1.6l0.9,2.5c1.3,0.4,2.1,0.7,3.4,0.7c3.5,0,5.7-1.6,5.7-4
		c0-0.9-0.4-1.7-1-2.3c-0.7-0.6-1.2-0.9-3.2-1.5c-2-0.6-2.8-1.1-2.8-1.8c0-0.8,0.9-1.5,2.3-1.5c1.1,0,2,0.3,3.1,1V27H145.8z"/>
	<path class="st1" d="M152.8,38.8h0.3c-0.1-0.1-0.2-0.1-0.3-0.2V38.8L152.8,38.8z M152.8,32.6v-0.7l2.1-2.3c0.8-0.9,1.2-1.5,1.2-1.9
		c0-0.3-0.1-0.5-0.5-0.8h3.9l-4.3,4.9c0.5,0.6,1.6,2,3.3,4.3c1.2,1.5,1.6,2,2.6,2.7c-0.7,0.1-1.5,0.1-2,0.1c-0.9,0-1.3-0.1-1.7-0.4
		c-0.3-0.3-0.3-0.3-2.3-2.9l-1.2-1.7L152.8,32.6L152.8,32.6z M148.8,21.9c0.9,0.7,0.9,0.9,0.9,2.5v11.9c0,1.6-0.1,1.8-0.9,2.5h4
		v-0.2c-0.7-0.5-0.7-0.8-0.7-2.3v-15c-0.4,0.4-0.7,0.5-1.5,0.5L148.8,21.9L148.8,21.9z M152.8,31.9v0.7c-0.1-0.1-0.1-0.2-0.2-0.4
		L152.8,31.9z"/>
	<path class="st0" d="M163.9,35.9c-0.9,0-1.6,0.7-1.6,1.6c0,0.9,0.7,1.6,1.6,1.6c0.9,0,1.6-0.7,1.6-1.6
		C165.5,36.6,164.7,35.9,163.9,35.9z"/>
	<path class="st1" d="M173.2,38.8c0.7,0.3,1.2,0.4,2,0.4c3.6,0,6.2-2.8,6.2-6.5c0-1.7-0.6-3.2-1.6-4.3c-1.1-1.1-2.8-1.8-4.3-1.8
		c-1.7,0-3.3,0.7-4.2,1.9v-2c-0.4,0.4-0.7,0.5-1.5,0.5h-1.8c0.9,0.7,1,0.9,1,2.5v12.1c0,1.7-0.1,2-1,2.5h4.3
		c-0.8-0.4-0.9-0.8-0.9-2.5v-9.5c0-1.2,0.1-1.8,0.6-2.4c0.7-0.9,1.8-1.4,3-1.4c2.3,0,3.9,1.9,3.9,4.7c0,2.8-1.5,4.5-4,4.5
		c-1,0-1.8-0.2-2.9-0.7L173.2,38.8z"/>
	<path class="st0" d="M187.5,38.8c-0.9-0.7-1-0.9-1-2.5V21.4c-0.4,0.4-0.7,0.5-1.5,0.5h-1.7c0.9,0.7,0.9,0.9,0.9,2.5v11.9
		c0,1.6-0.1,1.8-0.9,2.5L187.5,38.8L187.5,38.8z"/>
	<path class="st2" d="M170.4,3.6C105.3-5.1,68.5,7.1,2.3,8.6l24.6,4.7C93,11.7,129.8-0.5,195,8.4L170.4,3.6z"/>
	<path class="st1" d="M84.3,39.4"/>
</g>
</svg>
