<?xml version="1.0" encoding="utf-8"?>
<!-- Generator: Adobe Illustrator 25.2.1, SVG Export Plug-In . SVG Version: 6.00 Build 0)  -->
<svg version="1.1" id="Warstwa_1" xmlns="http://www.w3.org/2000/svg" xmlns:xlink="http://www.w3.org/1999/xlink" x="0px" y="0px"
	 viewBox="0 0 50 31.2" style="enable-background:new 0 0 50 31.2;" xml:space="preserve">
<style type="text/css">
	.st0{fill:#C00418;}
</style>
<g>
	<polygon class="st0" points="0,9.1 11.7,20.9 11.7,9.1 	"/>
	<path class="st0" d="M43.6,9.5c-3.5,0-6.4,2.9-6.4,6.4v9c0,0.9,0.8,1.5,1.6,1.5c0.8,0,1.5-0.7,1.5-1.5v-3.5c3,1.8,7,0.8,8.8-2.2
		c1.8-3,0.8-7-2.2-8.8C45.9,9.8,44.8,9.5,43.6,9.5 M43.6,19.2c-1.8,0-3.3-1.5-3.3-3.3s1.5-3.3,3.3-3.3c1.8,0,3.3,1.5,3.3,3.3l0,0
		C46.9,17.7,45.4,19.2,43.6,19.2 M22.6,9.5c-1.2,0-2.3,0.3-3.3,0.9V6.6c0-0.9-0.7-1.6-1.6-1.6s-1.6,0.7-1.6,1.6v9.4
		c0,3.5,2.9,6.4,6.4,6.4s6.4-2.9,6.4-6.4C29,12.4,26.1,9.5,22.6,9.5 M22.6,19.2c-1.8,0-3.3-1.5-3.3-3.3s1.5-3.3,3.3-3.3
		c1.8,0,3.3,1.5,3.3,3.3l0,0C25.9,17.7,24.4,19.2,22.6,19.2 M34.6,19.4c-0.2-0.1-0.9-0.4-0.9-2.9v-5.3c0-0.9-0.7-1.6-1.6-1.6
		c-0.9,0-1.6,0.7-1.6,1.6v5.3c0,1.9,0.3,4.5,2.6,5.7c0.8,0.4,1.7,0.1,2.1-0.6C35.8,20.8,35.5,19.8,34.6,19.4
		C34.7,19.4,34.7,19.4,34.6,19.4 M32.2,8.5c1,0,1.7-0.8,1.7-1.7S33.2,5,32.2,5s-1.7,0.8-1.7,1.7c0,0,0,0,0,0
		C30.5,7.7,31.3,8.5,32.2,8.5"/>
</g>
</svg>
